<svg width="279.7" height="82.001" viewBox="0 0 279.7 82.001" xmlns="http://www.w3.org/2000/svg"><g id="svgGroup" stroke-linecap="round" fill-rule="evenodd" font-size="9pt" stroke="#000" stroke-width="0" fill="#000" style="stroke:#000;stroke-width:0;fill:#000"><path d="M 145.7 58.9 L 145.7 0 L 153.1 0 L 153.1 59.1 Q 153.1 63.8 154.15 67.65 Q 155.2 71.5 158.1 73.7 Q 161 75.9 166.4 75.9 Q 171.6 75.9 174.5 73.65 Q 177.4 71.4 178.55 67.6 Q 179.7 63.8 179.7 59.1 L 179.7 0 L 187 0 L 187 58.9 Q 187 65.6 185.2 70.85 Q 183.4 76.1 178.9 79.05 Q 174.4 82 166.4 82 Q 158.2 82 153.65 79.05 Q 149.1 76.1 147.4 70.85 Q 145.7 65.6 145.7 58.9 Z M 101.9 81 L 94.6 81 L 112.1 38.8 L 94.8 0 L 101.9 0 L 116.4 32.3 L 130.3 0 L 137.6 0 L 119.7 39.7 L 138.2 81 L 130.9 81 L 115.5 46.8 L 101.9 81 Z M 247.7 81 L 240.1 81 L 240.1 0 L 258.4 0 Q 266 0 270.35 2.45 Q 274.7 4.9 276.6 9.55 Q 278.5 14.2 278.5 20.6 Q 278.5 25.1 277.5 29.1 Q 276.5 33.1 274.1 35.9 Q 271.7 38.7 267.3 39.6 L 279.7 81 L 272.3 81 L 260.4 41.2 L 247.7 41.2 L 247.7 81 Z M 29.5 81 L 0 81 L 0 0 L 29.3 0 L 29.3 5.9 L 7.7 5.9 L 7.7 36.3 L 25.3 36.3 L 25.3 41.9 L 7.7 41.9 L 7.7 75.3 L 29.5 75.3 L 29.5 81 Z M 229.7 81 L 200.2 81 L 200.2 0 L 229.5 0 L 229.5 5.9 L 207.9 5.9 L 207.9 36.3 L 225.5 36.3 L 225.5 41.9 L 207.9 41.9 L 207.9 75.3 L 229.7 75.3 L 229.7 81 Z M 70.5 81 L 39.9 81 L 39.9 0 L 47.5 0 L 47.5 75.3 L 70.5 75.3 L 70.5 81 Z M 85.9 81 L 78.3 81 L 78.3 0 L 85.9 0 L 85.9 81 Z M 247.7 5.7 L 247.7 35.6 L 258 35.6 Q 263.1 35.6 265.9 33.9 Q 268.7 32.2 269.9 28.9 Q 271.1 25.6 271.1 20.6 Q 271.1 13.1 268.5 9.4 Q 265.9 5.7 258.2 5.7 L 247.7 5.7 Z" vector-effect="non-scaling-stroke"/></g></svg>